<svg width="9" height="11" viewBox="0 0 9 11" fill="none" xmlns="http://www.w3.org/2000/svg">
<path d="M4.5 5.5C4.80938 5.5 5.07431 5.3922 5.29481 5.1766C5.51494 4.96137 5.625 4.7025 5.625 4.4C5.625 4.0975 5.51494 3.83845 5.29481 3.62285C5.07431 3.40762 4.80938 3.3 4.5 3.3C4.19062 3.3 3.92588 3.40762 3.70575 3.62285C3.48525 3.83845 3.375 4.0975 3.375 4.4C3.375 4.7025 3.48525 4.96137 3.70575 5.1766C3.92588 5.3922 4.19062 5.5 4.5 5.5ZM4.5 11C2.99062 9.74417 1.86337 8.57762 1.11825 7.50035C0.37275 6.42345 0 5.42667 0 4.51C0 3.135 0.452438 2.03958 1.35731 1.22375C2.26181 0.407917 3.30938 0 4.5 0C5.69062 0 6.73819 0.407917 7.64269 1.22375C8.54756 2.03958 9 3.135 9 4.51C9 5.42667 8.62744 6.42345 7.88231 7.50035C7.13681 8.57762 6.00938 9.74417 4.5 11Z" fill="currentColor"/>
</svg>
