<svg width="54" height="54" viewBox="0 0 54 54" fill="none" xmlns="http://www.w3.org/2000/svg">
<ellipse cx="7.10382" cy="34.3674" rx="1.7251" ry="1.76871" fill="currentColor"/>
<path d="M27 0C12.0915 0 0 12.3949 0 27.6826C0 39.9137 7.7355 50.29 18.4657 53.951C19.8135 54.2071 20.25 53.3489 20.25 52.6199V47.4664C12.7395 49.1412 11.1758 44.1998 11.1758 44.1998C10.691 42.9374 10.1219 42.0405 9.61038 41.4172C9.52466 41.5294 9.4057 41.6166 9.26268 41.6613C8.89168 41.7772 8.4993 41.5628 8.38626 41.1824L8.05891 40.0808C7.56483 40.0064 7.18349 39.5235 7.18349 38.9388C7.18349 38.6213 7.29595 38.3338 7.47785 38.1254L7.41616 37.9178C7.31328 37.9272 7.20912 37.932 7.10387 37.932C5.18372 37.932 3.62713 36.3361 3.62713 34.3674C3.62713 32.3987 5.18372 30.8028 7.10387 30.8028C9.02402 30.8028 10.5806 32.3987 10.5806 34.3674C10.5806 35.6808 9.88778 36.8283 8.85639 37.4467C8.94397 37.4893 9.0419 37.55 9.14429 37.6136C9.52374 37.8492 9.96449 38.1228 10.167 37.648C10.2966 37.344 10.3778 37.2032 10.5629 36.9343C10.6425 36.8186 10.7224 36.7254 10.7527 36.681C11.3538 35.9517 12.4327 35.698 11.6928 36.4273C11.2764 36.767 11.1221 37.3414 11.0706 37.5331C11.0669 37.5471 11.0636 37.5591 11.0609 37.5688C11.0008 37.7819 10.9607 37.9506 10.9274 38.0902L10.9274 38.0903C10.8164 38.5563 10.7821 38.7 10.3416 39.1012C11.7636 39.946 12.501 41.3209 12.501 41.3209C14.9085 45.5517 18.8168 44.329 20.358 43.6208C20.5988 41.833 21.2985 40.6103 22.0725 39.9206C16.0763 39.217 9.77175 36.8432 9.77175 26.2385C9.77175 23.2141 10.827 20.7458 12.5528 18.808C12.2738 18.109 11.349 15.2923 12.816 11.4813C12.816 11.4813 15.084 10.7385 20.2432 14.3188C22.3965 13.7052 24.705 13.3984 27 13.3868C29.295 13.3984 31.6057 13.7052 33.7635 14.3188C38.9182 10.7385 41.1818 11.4813 41.1818 11.4813C42.651 15.2946 41.7262 18.1113 41.4473 18.808C43.1797 20.7458 44.226 23.2164 44.226 26.2385C44.226 36.8709 37.9103 39.2124 31.8983 39.8975C32.8658 40.7557 33.75 42.4397 33.75 45.0234V52.6199C33.75 53.3558 34.182 54.2209 35.5522 53.9487C46.2735 50.2831 54 39.909 54 27.6826C54 12.3949 41.9108 0 27 0Z" fill="currentColor"/>
</svg>
